<svg xmlns="http://www.w3.org/2000/svg" viewBox="0 0 597.69 414"><defs><style>.cls-1{fill:#a1bace;}.cls-2{fill:none;stroke:#5c7893;stroke-linecap:round;stroke-linejoin:round;stroke-width:23px;}</style></defs><title>资源 2</title><g id="图层_2" data-name="图层 2"><g id="图层_1-2" data-name="图层 1"><path class="cls-1" d="M66,188.19H581.41a1.28,1.28,0,0,1,1.28,1.28V393.35a1.28,1.28,0,0,1-1.28,1.28H51.27A1.28,1.28,0,0,1,50,393.35V204.19A16,16,0,0,1,66,188.19Z"/><path class="cls-2" d="M11.5,229.4V25.5a14,14,0,0,1,14-14H572.2a14,14,0,0,1,14,14v363a14,14,0,0,1-14,14H25.5a14,14,0,0,1-14-14V314.16"/><polyline class="cls-2" points="89.35 282.66 196.5 174.63 351.33 249.86 508.34 119.97"/></g></g></svg>