<svg xmlns="http://www.w3.org/2000/svg" viewBox="0 0 547 547"><defs><style>.cls-1{fill:#a1bace;}.cls-2{fill:none;stroke-linecap:round;stroke-width:23px;}.cls-2,.cls-3{stroke:#5c7893;stroke-miterlimit:10;}.cls-3{fill:#5c7893;stroke-width:4px;}</style></defs><title>资源 1</title><g id="图层_2" data-name="图层 2"><g id="图层_1-2" data-name="图层 1"><circle class="cls-1" cx="313.75" cy="323.75" r="195.75"/><path class="cls-2" d="M12.92,300.9a263.84,263.84,0,0,1-1.42-27.4c0-144.7,117.3-262,262-262s262,117.3,262,262-117.3,262-262,262A262,262,0,0,1,41.6,395.55"/><path class="cls-3" d="M373.76,405.63a32.53,32.53,0,0,1-23.44-9.8L221.58,267.09a71,71,0,0,1-19,2.69,68.38,68.38,0,0,1-65.33-89.54,7,7,0,0,1,5.19-4.8,7.15,7.15,0,0,1,6.72,1.92L178.73,207a14.6,14.6,0,0,0,10.38,4.42A14.27,14.27,0,0,0,199.49,207l8.45-8.45a14.59,14.59,0,0,0,4.42-10.38,14.24,14.24,0,0,0-4.42-10.37L178.73,148a7.17,7.17,0,0,1,2.89-11.91,71.45,71.45,0,0,1,21.13-3.27,68.37,68.37,0,0,1,65.91,87.62L397.4,349.14a33.29,33.29,0,0,1,0,46.88,33.94,33.94,0,0,1-23.64,9.61ZM223.7,251.72a7.73,7.73,0,0,1,5.18,2.12L360.7,385.65a18.75,18.75,0,0,0,26.51-26.52L255.4,227.51c-2.11-2.11-2.5-4.8-1.54-7.68A54.38,54.38,0,0,0,202.75,147a34.4,34.4,0,0,0-4.42.19l20,20a29.24,29.24,0,0,1,0,41.12l-8.27,8.64a29.21,29.21,0,0,1-41.12,0l-20.36-20a55,55,0,0,0,15.75,42.66,54.1,54.1,0,0,0,38.43,15.95,56.09,56.09,0,0,0,18.64-3.27A4.53,4.53,0,0,1,223.7,251.72Z"/><path class="cls-3" d="M394.13,265.94a13.5,13.5,0,0,1-9.61-3.84l-.19-.19-20-20L348,258.26a7.21,7.21,0,1,1-10.19-10.19l21.33-21.33a7.08,7.08,0,0,1,10.18,0L393.55,251,409.5,203.3,349.17,143l-31.71,31.7L332.84,190a7.44,7.44,0,0,1,0,10.38L311.7,221.75a7.2,7.2,0,0,1-10.18-10.19l16.33-16.33-11-10.95a13.22,13.22,0,0,1,0-19l32.85-32.86a13.24,13.24,0,0,1,19,0l61.29,61.29a13.71,13.71,0,0,1,3.27,13.84L407.2,256a12.29,12.29,0,0,1-3.46,6.15,13.83,13.83,0,0,1-9.61,3.84ZM187.19,405.63A33.61,33.61,0,0,1,163.75,396a33.27,33.27,0,0,1,0-46.88l49-49a7.21,7.21,0,0,1,10.19,10.19l-49,49a18.79,18.79,0,0,0,0,26.52c7.3,7.49,19,7.3,26.52,0l49-49A7.21,7.21,0,1,1,259.63,347l-49,49a33.29,33.29,0,0,1-23.44,9.61Z"/></g></g></svg>