<svg xmlns="http://www.w3.org/2000/svg" viewBox="0 0 442.61 605.01"><defs><style>.cls-1{fill:#a1bace;}.cls-2{fill:#5c7893;}</style></defs><title>资源 3</title><g id="图层_2" data-name="图层 2"><g id="图层_1-2" data-name="图层 1"><path class="cls-1" d="M75.35,145.3H427.79a1.29,1.29,0,0,1,1.46,1.46V586.58a1.29,1.29,0,0,1-1.46,1.45H75.35a1.28,1.28,0,0,1-1.45-1.45V146.76a1.28,1.28,0,0,1,1.45-1.46Z"/><path class="cls-2" d="M412.43,82.44H269.7V32.37A32.41,32.41,0,0,0,237.32,0h-32a32.41,32.41,0,0,0-32.38,32.37V82.44H30.22A30.21,30.21,0,0,0,0,112.62V460.1h.1c0,.17-.1.33-.1.51a10.79,10.79,0,0,0,21.58,0,4.19,4.19,0,0,0-.11-.51h.11V112.62a8.61,8.61,0,0,1,8.58-8.6H412.43a8.6,8.6,0,0,1,8.59,8.6V574.84a8.61,8.61,0,0,1-8.59,8.61H30.19a8.62,8.62,0,0,1-8.61-8.61V546.31h-.07a10.73,10.73,0,0,0-21.45,0H0v28.53A30.22,30.22,0,0,0,30.19,605H412.43a30.22,30.22,0,0,0,30.18-30.19V112.62a30.21,30.21,0,0,0-30.18-30.18Zm-164.34,0H194.52V32.37a10.82,10.82,0,0,1,10.8-10.79h32a10.81,10.81,0,0,1,10.79,10.79Z"/><path class="cls-2" d="M121.8,224.88h199q10.45,0,10.46,10.46h0q0,10.46-10.46,10.45h-199q-10.47,0-10.46-10.45h0q0-10.46,10.46-10.46Z"/><path class="cls-2" d="M121.8,320.33h199q10.45,0,10.46,10.45h0q0,10.45-10.46,10.45h-199q-10.47,0-10.46-10.45h0q0-10.45,10.46-10.45Z"/><path class="cls-2" d="M121.8,415.77h199q10.45,0,10.46,10.46h0q0,10.45-10.46,10.46h-199q-10.47,0-10.46-10.46h0q0-10.47,10.46-10.46Z"/></g></g></svg>