<?xml version="1.0" standalone="no"?>
<!DOCTYPE svg PUBLIC "-//W3C//DTD SVG 1.1//EN" "http://www.w3.org/Graphics/SVG/1.1/DTD/svg11.dtd" >
<!--
2013-9-30: Created.
-->
<svg>
<metadata>
Created by iconfont
</metadata>
<defs>

<font id="iconfont" horiz-adv-x="1024" >
  <font-face
    font-family="iconfont"
    font-weight="500"
    font-stretch="normal"
    units-per-em="1024"
    ascent="896"
    descent="-128"
  />
    <missing-glyph />
    
    <glyph glyph-name="more" unicode="&#58962;" d="M690.943562 429.028886L243.191538-19.991556999999943a60.884128 60.884128 0 0 1 0-88.789353 60.884128 60.884128 0 0 1 88.789353 0l449.020443 447.752024a64.689386 64.689386 0 0 1 0 90.057772 64.689386 64.689386 0 0 1-90.057772 0zM243.191538 876.78091a60.884128 60.884128 0 0 1 0-88.789353l447.752024-449.020443a64.689386 64.689386 0 0 1 90.057772 0 64.689386 64.689386 0 0 1 0 90.057772L331.980891 876.78091a60.884128 60.884128 0 0 1-88.789353 0z"  horiz-adv-x="1024" />

    
    <glyph glyph-name="history" unicode="&#58885;" d="M512.151817 10.216453A373.776182 373.776182 0 1 1 138.375636 383.848208a373.631755 373.631755 0 0 1 373.776181-373.631755z m0-138.216309a511.99249 511.99249 0 1 0 511.848063 511.848064 511.99249 511.99249 0 0 0-511.848063-511.848064zM534.537949 390.347407l166.668359-165.946226a51.271462 51.271462 0 1 0-72.213327-72.213327L447.881956 332.576745a20.797438 20.797438 0 0 0-5.054933 5.63264 51.127036 51.127036 0 0 0-10.831999 31.196157V625.762854a51.271462 51.271462 0 1 0 102.398498 0z"  horiz-adv-x="1024" />

    
    <glyph glyph-name="fault-process" unicode="&#58886;" d="M480.328349 255.962474a128.037526 128.037526 0 1 1-128.037525 128.037526A128.037526 128.037526 0 0 1 480.328349 255.962474zM217.648783 665.592495a360.246262 360.246262 0 0 0 153.55497 83.156845L422.388742 896h128.037526l51.18499-147.25066a445.504544 445.504544 0 0 0 153.554969-83.156845l153.554969 31.971856 64.093814-115.128702L870.595133 467.156845a367.301085 367.301085 0 0 0 6.30431-83.156845c0-25.667546-6.30431-57.639402-6.30431-83.156845l102.36998-115.278804L908.721196 70.435649l-153.554969 31.971856a360.246262 360.246262 0 0 0-153.554969-83.156845l-51.18499-147.25066h-128.037526l-51.184989 147.25066a445.504544 445.504544 0 0 0-153.55497 83.156845L63.943712 70.435649 0 185.564351l102.369979 115.278804a367.301085 367.301085 0 0 0-6.304309 83.156845c0 25.667546 6.30431 57.639402 6.304309 83.156845L0 582.435649l63.943712 115.128702z"  horiz-adv-x="1024" />

    
    <glyph glyph-name="group" unicode="&#58887;" d="M989.129334 268.04623H840.629609V412.178316H837.952669a23.528894 23.528894 0 0 1-21.556411 14.089158H550.674739v73.686296h127.647771a28.178316 28.178316 0 0 1 28.178316 28.178316V867.821684a28.178316 28.178316 0 0 1-28.178316 28.178316H338.632911a28.178316 28.178316 0 0 1-28.178316-28.178316v-339.689598a28.178316 28.178316 0 0 1 28.178316-28.178316h127.50688v-73.686296H199.995597a23.669785 23.669785 0 0 1-21.697303-14.089158H175.762245v-144.132086H34.870666a28.178316 28.178316 0 0 1-28.178316-28.178316v-339.689598a28.178316 28.178316 0 0 1 28.178316-28.178316h339.689598a28.178316 28.178316 0 0 1 28.178316 28.178316V239.867914a28.178316 28.178316 0 0 1-28.178316 28.178316H260.297193v73.686296h495.797469v-73.686296h-106.795818a28.178316 28.178316 0 0 1-28.178316-28.178316v-339.689598a28.178316 28.178316 0 0 1 28.178316-28.178316h339.83049a28.178316 28.178316 0 0 1 28.178316 28.178316V239.867914a28.178316 28.178316 0 0 1-28.178316 28.178316zM395.694001 603.509081V792.444689a18.175014 18.175014 0 0 0 18.175014 18.175014h189.0765a18.175014 18.175014 0 0 0 18.175013-18.175014v-188.935608a18.315905 18.315905 0 0 0-18.175013-18.315905H413.869015a18.315905 18.315905 0 0 0-18.175014 18.315905z m-78.194827-439.018162v-188.935608a18.315905 18.315905 0 0 0-18.315905-18.315905H110.247661a18.315905 18.315905 0 0 0-18.175014 18.315905V164.490919a18.175014 18.175014 0 0 0 18.175014 18.175014h188.935608a18.315905 18.315905 0 0 0 18.315905-18.175014z m614.428179-188.935608a18.315905 18.315905 0 0 0-18.175014-18.315905H725.239406a18.315905 18.315905 0 0 0-18.175014 18.315905V164.490919A18.175014 18.175014 0 0 0 725.239406 182.665933h188.512933a18.175014 18.175014 0 0 0 18.175014-18.175014z"  horiz-adv-x="1024" />

    
    <glyph glyph-name="lift-name" unicode="&#58888;" d="M330.72710973 186.61942040999998h296.35401066a37.1229016 37.1229016 0 1 1 0 74.11996246H330.72710973a37.1229016 37.1229016 0 1 1 0-74.11996248zM1068.65488823 532.1770053299999V680.54277101A74.24580321 74.24580321 0 0 1 994.53492573 754.78857422H215.457355A74.24580321 74.24580321 0 0 1 141.21155179 680.54277101V87.83474968999997a74.11996249 74.11996249 0 0 1 74.24580321-74.2458032h778.70005003a74.11996249 74.11996249 0 0 1 73.36492036 74.2458032V458.43456355l1.13256283 73.74244179zM252.45441587 680.54277101h704.70592755a36.99706087 36.99706087 0 0 0 37.75210301-36.99706087v-111.3687048H215.457355V643.54571014A37.75210302 37.75210302 0 0 0 252.45441587 680.54277101z m741.70298916-556.46600184a37.75210302 37.75210302 0 0 0-36.7453809-37.75210375h-704.70592753a36.99706087 36.99706087 0 0 0-36.9970609 37.75210375V457.93120213h777.94500791v-333.85443296z"  horiz-adv-x="1280" />

    
    <glyph glyph-name="locate" unicode="&#58890;" d="M976.071111 335.928889H924.444444A416 416 0 0 0 560.071111-28.444444v-51.057778a48.071111 48.071111 0 0 0-96 0V-28.444444A415.857778 415.857778 0 0 0 99.555556 335.928889H47.928889a48.071111 48.071111 0 0 0 0 96H99.555556A415.715556 415.715556 0 0 0 464.071111 796.444444V848.071111a47.928889 47.928889 0 0 0 95.857778 0V796.444444A415.715556 415.715556 0 0 0 924.444444 431.928889h51.057778a48.071111 48.071111 0 0 0 0-96m-239.502222 96h92.017778a320 320 0 0 1-267.946667 268.231111v-92.16a48.071111 48.071111 0 1 0-96 0v92.017778a320 320 0 0 1-268.231111-268.088889h92.16a47.928889 47.928889 0 1 0 0-95.857778h-92.017778a320 320 0 0 1 268.088889-268.231111v92.16a47.928889 47.928889 0 0 0 95.857778 0v-92.16a320 320 0 0 1 268.088889 268.088889h-92.017778a48.071111 48.071111 0 0 0 0 96M512 335.928889A48.071111 48.071111 0 1 0 560.071111 384 48.071111 48.071111 0 0 0 512 335.928889"  horiz-adv-x="1024" />

    
    <glyph glyph-name="map-marker" unicode="&#58891;" d="M483.487056 286.747742A178.321493 178.321493 0 0 1 662.733293 464.452739a183.56171 183.56171 0 0 1-178.629741 184.948826 178.167369 178.167369 0 0 1-179.246237-176.934377v-0.77062a188.031306 188.031306 0 0 1 178.629741-184.948826zM183.56171 771.621915A424.149308 424.149308 0 0 0 783.412402 171.617098L483.487056-128 183.56171 171.617098a435.708609 435.708609 0 0 0 0 600.004817z"  horiz-adv-x="1024" />

    
    <glyph glyph-name="offline" unicode="&#58892;" d="M422.565413 210.855234a50.40453 50.40453 0 0 1 0-59.474372L629.982285-55.589952a236.113257 236.113257 0 0 1 161.026863-72.410048A247.562073 247.562073 0 0 1 1024 104.990852 236.113257 236.113257 0 0 1 951.589952 266.017715L743.42965 477.746479a50.850588 50.850588 0 0 1-59.474372 0 50.553216 50.553216 0 0 1 0-59.474372l208.160302-208.160302a130.694932 130.694932 0 0 0 42.37549-101.55249A131.14099 131.14099 0 0 0 892.11558 7.601568a143.035865 143.035865 0 0 0-203.253666 0l-208.160302 208.160302c-15.909395 12.04356-45.497895 12.04356-58.136199-4.906636zM66.759983 507.334979l208.160302-208.160302c12.78699-12.78699 12.78699-12.78699 29.737186-12.78699 12.638304 0 12.638304 0 29.737186 12.78699a50.255844 50.255844 0 0 1 0 59.474372l-208.160302 208.160302a152.254392 152.254392 0 0 0-42.226805 101.701176 152.551764 152.551764 0 0 0 41.929433 101.55249 143.481922 143.481922 0 0 0 208.160302 0l208.160302-208.160302a50.553216 50.553216 0 0 1 59.474372 0 50.999274 50.999274 0 0 1 0 59.474372l-208.160302 207.416873a232.396109 232.396109 0 0 1-326.068245 0 227.340787 227.340787 0 0 1-0.743429-321.458981zM803.944824 554.022361l168.609844 16.950196 8.77247-84.602294-168.907216-16.950196z m-69.733702 92.333963l119.84086 119.840859 59.474372-59.474372-119.692174-119.840859z m-117.461884 25.127922l16.80151 168.312472 84.304922-8.475098-16.950196-168.609844zM303.170611-91.274575l16.950196 168.609844 84.304923-8.475098L387.475534-100.195731zM107.351241 36.149267l119.84086 119.840859 59.474372-59.474372-119.84086-119.840859zM41.63206 256.650501l168.461159 16.950196 8.475098-84.304922-168.461159-16.355453z"  horiz-adv-x="1024" />

    
    <glyph glyph-name="lift" unicode="&#58893;" d="M477.562114 208.647907v75.060535a34.437886 34.437886 0 0 0 34.297323 34.437886 34.437886 34.437886 0 0 0 34.437886-34.437886v-75.060535h74.498284a32.470007 32.470007 0 0 1 31.204942 33.453946V525.335896A32.329444 32.329444 0 0 1 620.795607 558.649279h-74.498284v-75.060535a34.437886 34.437886 0 0 0-34.437886-34.437886 34.437886 34.437886 0 0 0-34.297323 34.437886V558.649279h-74.498284a32.188881 32.188881 0 0 1-31.064379-33.313383v-283.234043a32.329444 32.329444 0 0 1 31.064379-33.453946z m63.393823 593.034454v-94.458202a29.518188 29.518188 0 1 0-58.755251 0V801.682361L448.74674 766.401098a28.11256 28.11256 0 0 0-41.466026 0 33.032258 33.032258 0 0 0 0 44.558408l62.26932 66.626767a56.22512 56.22512 0 0 0 83.072615 0l62.269321-66.626767A33.172821 33.172821 0 0 0 617.4221 766.401098a28.11256 28.11256 0 0 0-42.16884-1.546191l-1.405628 1.546191-32.751132 35.281263z m0-835.364722v94.458202a29.518188 29.518188 0 1 1-58.755251 0v-94.458202L448.74674 1.598902a28.11256 28.11256 0 0 1-41.466026 0 33.032258 33.032258 0 0 1 0-44.558408l62.26932-66.626767a56.22512 56.22512 0 0 1 83.072615 0l62.269321 66.626767a33.172821 33.172821 0 0 1 1.405628 44.558408 28.11256 28.11256 0 0 1-42.16884 1.546191l-1.405628-1.546191-32.891696-35.281263zM373.96733 647.625532H649.751544a81.80755 81.80755 0 0 0 78.855731-84.33768v-358.997392a81.80755 81.80755 0 0 0-78.855731-84.33768H373.96733a81.80755 81.80755 0 0 0-78.715168 84.33768V563.147289a81.80755 81.80755 0 0 0 78.715168 84.33768z m-204.097186-674.701441h-14.05628A30.64269 30.64269 0 0 0 125.452299 3.00453V785.236513A30.64269 30.64269 0 0 0 156.09499 815.879204h14.05628a30.64269 30.64269 0 0 0 30.361565-30.642691v-782.231983a30.64269 30.64269 0 0 0-30.642691-30.642691z m697.894303 0h-14.05628a30.64269 30.64269 0 0 0-30.502127 30.64269V785.236513a30.64269 30.64269 0 0 0 30.64269 30.642691h14.05628A30.783253 30.783253 0 0 0 898.547701 785.236513v-782.231983a30.783253 30.783253 0 0 0-30.783254-30.642691z"  horiz-adv-x="1024" />

    
    <glyph glyph-name="operating-data" unicode="&#58894;" d="M518.762796 393.721519m-195.134838 0a195.134838 195.134838 0 1 1 390.269675 0 195.134838 195.134838 0 1 1-390.269675 0ZM869.019263 741.019263A504.955421 504.955421 0 1 1 154.980737 26.980737 504.955421 504.955421 0 1 1 869.019263 741.019263zM512-10.073748a394.496423 394.496423 0 1 0 394.496423 394.496423 394.496423 394.496423 0 0 0-394.496423-394.496423z"  horiz-adv-x="1024" />

    
    <glyph glyph-name="main" unicode="&#58895;" d="M547.00416269 652.62863435L687.52510979 786.23466623a69.51958978 69.51958978 0 0 0 23.46131828 14.81767466A75.32317913 75.32317913 0 0 0 738.52260647 805.86808521a74.08837244 74.08837244 0 0 0 27.28921758-6.0505502 71.74224069 71.74224069 0 0 0 22.72043407-16.05248137l133.60603272-140.39746626a69.64307062 69.64307062 0 0 0 14.69419381-23.46131829 74.08837244 74.08837244 0 0 0 5.30966684-27.28921672 74.08837244 74.08837244 0 0 0-6.05055101-27.28921756 71.37179902 71.37179902 0 0 0-15.92899971-22.59695325L779.27121198 408.63092633a70.38395398 70.38395398 0 0 0-23.58479911-14.94115467 74.08837244 74.08837244 0 0 0-27.41269757-4.69226431 71.37179902 71.37179902 0 0 0-27.28921756 6.05055102A68.03782223 68.03782223 0 0 0 678.26406366 410.73009723L544.65803094 551.62148602a70.50743482 70.50743482 0 0 0-14.94115467 23.33783744 72.60660571 72.60660571 0 0 0-4.56878347 27.5361784 72.60660571 72.60660571 0 0 0 6.05055103 27.16573672A69.39610896 69.39610896 0 0 0 547.00416269 652.62863435zM165.81948517 784.50593782h222.26511813a75.94058167 75.94058167 0 0 0 76.18754333-75.69362081v-222.26511813A75.94058167 75.94058167 0 0 0 388.57852581 410.73009723h-222.26511812A75.94058167 75.94058167 0 0 0 90.12586437 486.05327637v222.26511813a76.0640625 76.0640625 0 0 0 75.6936208 76.18754332z m222.26511813-53.3436284h-222.26511813a22.72043408 22.72043408 0 0 1-15.80551969-6.54447272 22.47347324 22.47347324 0 0 1-6.54447271-15.80551969v-222.26511813a22.22651157 22.22651157 0 0 1 6.54447271-15.68203967 22.59695407 22.59695407 0 0 1 15.80551969-6.66795355h222.26511813A22.59695407 22.59695407 0 0 1 411.17547988 486.05327637v222.26511813a22.72043408 22.72043408 0 0 1-6.54447353 15.80551969 22.34999241 22.34999241 0 0 1-16.05248054 7.03839523z m-222.26511813-395.13798798h222.26511813a75.94058167 75.94058167 0 0 0 75.69362082-75.69362082v-222.26511895a75.94058167 75.94058167 0 0 0-75.69362082-75.69362083h-222.26511813A75.94058167 75.94058167 0 0 0 90.12586437 37.94210166000005v222.26511813A76.0640625 76.0640625 0 0 0 165.81948517 336.64172397000004z m222.26511813-53.34362842h-222.26511813a22.34999241 22.34999241 0 0 1-15.80551969-6.66795355 21.97955073 21.97955073 0 0 1-6.54447271-15.68203885v-222.26511895a22.72043408 22.72043408 0 0 1 6.54447271-15.80551888 22.96739574 22.96739574 0 0 1 15.80551969-6.66795354h222.26511813a22.72043408 22.72043408 0 0 1 15.80551968 6.54447273 22.96739574 22.96739574 0 0 1 7.2853569 15.80551968v222.26511812a22.22651157 22.22651157 0 0 1-6.54447353 15.68203887 21.97955073 21.97955073 0 0 1-16.05248054 7.16187605zM621.95690015 336.64172397000004h222.26511813a75.94058167 75.94058167 0 0 0 75.69362081-75.69362082v-222.26511814a76.0640625 76.0640625 0 0 0-75.69362081-75.81710164h-222.26511813a75.94058167 75.94058167 0 0 0-75.69362082 75.69362081v222.26511896A76.0640625 76.0640625 0 0 0 621.95690015 336.64172397000004z m222.26511813-53.34362841h-222.26511813a22.72043408 22.72043408 0 0 1-22.34999241-22.34999241v-222.26511814a22.34999241 22.34999241 0 0 1 6.66795356-15.80551968 22.72043408 22.72043408 0 0 1 15.68203885-6.54447271h222.26511813a22.72043408 22.72043408 0 0 1 15.80551969 6.54447271 22.47347324 22.47347324 0 0 1 6.54447271 15.80551968v222.26511814a22.47347324 22.47347324 0 0 1-6.54447271 15.68203884 21.97955073 21.97955073 0 0 1-15.31159717 6.42099271zM727.16238943 744.12777484L586.76492315 611.01566465a12.34806208 12.34806208 0 0 1-3.08701592-4.44530264 12.34806208 12.34806208 0 0 1-1.23480589-5.30966604 14.57071298 14.57071298 0 0 1 3.95138013-10.00193031L719.87703254 450.86129856a13.82982962 13.82982962 0 0 1 9.63148863-4.32182099 13.70634878 13.70634878 0 0 1 5.43314769 0.98784421 15.43507801 15.43507801 0 0 1 4.69226348 2.84005508L880.4018403 583.60296707a14.57071298 14.57071298 0 0 1 3.21049595 4.56878266 12.34806208 12.34806208 0 0 1 1.11132586 5.186186 15.43507801 15.43507801 0 0 1-0.86436419 5.30966684 13.70634878 13.70634878 0 0 1-2.9635351 4.69226349L746.91928924 744.12777484a15.31159717 15.31159717 0 0 1-4.32182181 3.08701511 13.70634878 13.70634878 0 0 1-5.30966683 1.11132587 15.68203884 15.68203884 0 0 1-5.43314767-0.8643642 12.34806208 12.34806208 0 0 1-4.6922635-2.84005509z"  horiz-adv-x="1034" />

    
    <glyph glyph-name="menu" unicode="&#58896;" d="M203.68983344 104.66717812000002A46.45201349 46.45201349 0 0 0 250.24530313 151.22264843000005h372.4437625a46.45201349 46.45201349 0 0 0 46.55547031-46.55547031 46.45201349 46.45201349 0 0 0-46.55547031-46.55546967h-372.4437625A46.45201349 46.45201349 0 0 0 203.68983344 104.66717812000002z m0 279.33282188A46.45201349 46.45201349 0 0 0 250.24530313 430.55547035h651.77658374a46.45201349 46.45201349 0 0 0 46.5554703-46.55547035 46.45201349 46.45201349 0 0 0-46.5554703-46.55547035h-651.77658374A46.45201349 46.45201349 0 0 0 203.68983344 384z m0 279.33282188A46.45201349 46.45201349 0 0 0 250.24530313 709.88829155h651.77658374A46.45201349 46.45201349 0 0 0 948.57735717 663.33282188 46.45201349 46.45201349 0 0 0 902.02188687 616.7773515700001h-651.77658374A46.45201349 46.45201349 0 0 0 203.68983344 663.33282188z"  horiz-adv-x="1170" />

    
    <glyph glyph-name="push-news" unicode="&#58897;" d="M956.618835-0.017295H636.454533a127.982705 127.982705 0 0 0-255.96541 0H60.60154a61.431698 61.431698 0 0 0-57.557627 44.828537 69.179841 69.179841 0 0 0 19.093636 70.425077A257.072288 257.072288 0 0 1 124.523713 320.008647V512.051885a384.086475 384.086475 0 0 0 768.03459 0v-192.043238a257.902446 257.902446 0 0 1 102.386164-204.772328 60.60154 60.60154 0 0 0 19.231996-70.425077 61.708418 61.708418 0 0 0-57.557628-44.828537z"  horiz-adv-x="1024" />

    
    <glyph glyph-name="position" unicode="&#58898;" d="M512.068257 558.661865a92.556013 92.556013 0 1 0-65.799408-27.302659 92.556013 92.556013 0 0 0 65.799408 27.302659m0 81.907976a175.010042 175.010042 0 1 1 123.681043-51.055972 174.873529 174.873529 0 0 1-123.681043 50.919458zM805.025784 771.622602A407.355667 407.355667 0 0 1 228.803173 781.451559q-5.050992-4.641452-9.828957-9.828957a431.10898 431.10898 0 0 1 0-599.156844l293.094041-300.329245 292.957527 300.329245a431.10898 431.10898 0 0 1 0 599.156844zM743.048749 227.071076L512.068257-10.735081 281.087765 227.071076a338.962507 338.962507 0 0 0 0 472.199481 321.761832 321.761832 0 0 0 454.998806 6.825664l6.962178-6.825664a339.235534 339.235534 0 0 0 0-472.199481z"  horiz-adv-x="1024" />

    
    <glyph glyph-name="mission-type" unicode="&#58899;" d="M361.58838 397.494352A138.656254 138.656254 0 1 0 499.816242 535.865012a139.227444 139.227444 0 0 0-137.79947-138.37066z m0 89.962349a48.836703 48.836703 0 1 1-49.122298 48.693906 48.979501 48.979501 0 0 1 49.122298-48.693906z m633.163575-114.237903Q769.274895 594.983126 544.083429 816.890252a485.511086 485.511086 0 0 1-59.689304 53.549017A123.09134 123.09134 0 0 1 409.282704 896c-49.979082 0-99.958165-0.713987-150.080044-1.142379-52.26384 0-104.384884 0-157.077117-1.285176A103.099707 103.099707 0 0 1 0.025418 788.187979q0.856784-155.363548 2.141961-310.4415A125.090503 125.090503 0 0 1 5.023326 453.328127a145.510529 145.510529 0 0 1 43.553201-70.113513q242.755543-240.75638 486.225073-480.084786a110.810766 110.810766 0 0 1 155.363547 1.427974Q843.529532 59.92135 996.751119 215.71329a114.237903 114.237903 0 0 1 20.13443 28.559475 110.810766 110.810766 0 0 1-22.704783 128.660438z m-83.393669-94.389067c-71.398689-71.398689-142.797378-143.79696-211.768512-214.196068l-73.683447-74.825826a26.845907 26.845907 0 0 0-18.706456-8.996235 26.560312 26.560312 0 0 0-18.56366 8.71064l-81.6801 80.537722C384.007568 190.580951 257.060699 315.38586 133.255372 438.334402a166.501743 166.501743 0 0 0-20.70562 27.417097 15.707712 15.707712 0 0 0-1.713568 7.711059C109.979399 559.426579 109.40821 653.244457 108.694223 767.48236a16.992888 16.992888 0 0 0 18.992051 17.706874h287.59392a35.128155 35.128155 0 0 0 21.419607-8.282248 508.644262 508.644262 0 0 0 69.542323-63.544833c8.425045-8.71064 17.135685-17.706875 25.989123-26.417515l188.206945-185.636592c62.11686-61.260075 126.37568-124.662111 189.777715-186.778971a28.559476 28.559476 0 0 0 0-38.555292z"  horiz-adv-x="1028" />

    
    <glyph glyph-name="message" unicode="&#58900;" d="M141.994667 94.27626699999996a62.696107 62.696107 0 0 1 80.2816-80.2816l115.124906 27.962026a373.445973 373.445973 0 0 1 174.762667-41.94304A381.41952 381.41952 0 1 1 169.847467 207.87199999999996z m99.505493 109.991253a34.624853 34.624853 0 0 1-3.60448 26.105173 314.463573 314.463573 0 1 0 120.149333-120.149333 34.297173 34.297173 0 0 1-26.2144 3.495253l-121.787733-30.14656 31.348053 120.149334z m427.6224 214.6304a34.952533 34.952533 0 0 1 0 69.79584H354.87744a34.952533 34.952533 0 1 1 0-69.79584h314.24512z m0-139.59168a34.952533 34.952533 0 0 1 0 69.79584H459.625813a34.952533 34.952533 0 0 1 0-69.79584z"  horiz-adv-x="1024" />

    
    <glyph glyph-name="goto-lift" unicode="&#58903;" d="M1072.333532 833.791543V870.537225a18.296605 18.296605 0 0 1-18.296605 18.296605H28.51221a18.296605 18.296605 0 0 1-18.296605-18.296605v-18.449077a18.296605 18.296605 0 0 1 18.296605-18.296605h18.296605a18.296605 18.296605 0 0 0 18.296605-18.296606v-853.841572a18.296605 18.296605 0 0 0-23.1757-17.686718l-8.538416 2.439547a18.296605 18.296605 0 0 1-23.175699-17.991662v-27.902322a18.296605 18.296605 0 0 1 18.296605-18.296605h1025.524717a18.296605 18.296605 0 0 1 18.296605 18.296605v18.449076a18.296605 18.296605 0 0 1-18.296605 18.296606h-18.296605a18.449077 18.449077 0 0 0-18.449077 18.296605V815.494937a18.449077 18.449077 0 0 0 18.449077 18.296606z m-577.10542-896.533651H139.054199a18.296605 18.296605 0 0 0-18.296605 18.296605V815.494937a18.296605 18.296605 0 0 0 18.296605 18.296606h356.631328a18.296605 18.296605 0 0 0 18.296605-18.296606v-859.94044a18.296605 18.296605 0 0 0-18.75402-18.296605z m448.876712 0h-356.7838a18.296605 18.296605 0 0 0-18.296605 18.296605V815.494937a18.296605 18.296605 0 0 0 18.296605 18.296606h356.7838a18.296605 18.296605 0 0 0 18.296605-18.296606v-859.94044a18.296605 18.296605 0 0 0-18.296605-18.296605z m-95.904705 393.224538h-36.745682a18.296605 18.296605 0 0 0-18.296605 18.296605V591.056581a18.296605 18.296605 0 0 1-18.296605 18.296605h-18.296605a18.296605 18.296605 0 0 1-18.296605-18.296605v-242.277546a18.296605 18.296605 0 0 0-18.296605-18.296605 18.296605 18.296605 0 0 1-15.247171-29.274568l45.741512-60.988684a18.296605 18.296605 0 0 1 29.274569 0l67.84991 91.483026z m-540.51221-113.591423h18.296606a18.449077 18.449077 0 0 1 18.296605 18.449076v242.430018a18.296605 18.296605 0 0 0 18.296605 18.296605 18.296605 18.296605 0 0 1 15.247171 29.274569l-45.741513 60.988683a18.296605 18.296605 0 0 1-29.42704 0l-45.741513-60.988683a18.449077 18.449077 0 0 1 15.247171-29.42704 18.296605 18.296605 0 0 0 18.296605-18.296605v-242.430018a18.449077 18.449077 0 0 1 17.229303-18.296605zM1082.549136-128H15.247171a16.314473 16.314473 0 0 0-15.247171 16.314473v55.042287a16.314473 16.314473 0 0 0 16.314473 16.314473h22.413341a16.314473 16.314473 0 0 1 16.314473 16.314473V792.166766a16.314473 16.314473 0 0 1-16.314473 16.314473H16.314473A16.162001 16.162001 0 0 0 0 824.64324V879.685527A16.314473 16.314473 0 0 0 16.314473 896h1046.870756a16.314473 16.314473 0 0 0 16.314473-16.314473v-55.042287a16.162001 16.162001 0 0 0-16.314473-16.162001h-22.413341a16.162001 16.162001 0 0 1-16.162001-16.314473v-800.933889a16.162001 16.162001 0 0 1 16.162001-16.314473h22.413341a16.314473 16.314473 0 0 0 16.314473-16.314473v-86.603931zM17.381775-110.313282H1045.955926a16.162001 16.162001 0 0 1 16.162001 15.247171v8.690888a16.162001 16.162001 0 0 1-16.162001 16.314473h-22.413341a16.162001 16.162001 0 0 0-16.314473 16.162001V824.795712a16.162001 16.162001 0 0 0 16.314473 16.162001h22.413341a16.162001 16.162001 0 0 1 16.162001 16.314473V862.456224a16.162001 16.162001 0 0 1-16.162001 16.162001H33.543776A16.314473 16.314473 0 0 1 17.381775 862.456224v-5.184038A16.314473 16.314473 0 0 1 33.543776 840.957713h22.565813a16.009529 16.009529 0 0 0 16.162001-16.162001v-877.932103a16.009529 16.009529 0 0 0-16.162001-16.162001H33.543776a16.314473 16.314473 0 0 1-16.162001-16.314473V-110.313282z m951.575938 41.319834H574.513401a16.009529 16.009529 0 0 0-16.162001 16.162001V824.795712a16.009529 16.009529 0 0 0 16.162001 16.162001h378.129839a16.162001 16.162001 0 0 0 16.314473-16.162001v-894.094104z m-365.932103 39.795116h304.333532a16.314473 16.314473 0 0 1 16.314473 16.314473V784.848124a16.314473 16.314473 0 0 1-16.314473 16.314473H619.797499a16.314473 16.314473 0 0 1-16.314473-16.314473V-29.503276z m-82.792138-39.795116H129.905896a16.162001 16.162001 0 0 0-16.314473 16.162001V824.795712a16.162001 16.162001 0 0 0 16.314473 16.162001h374.470519a16.162001 16.162001 0 0 0 16.314472-16.162001v-894.094104z m-361.357951 39.490172h303.876117a16.314473 16.314473 0 0 1 16.314473 16.314473V784.848124a16.314473 16.314473 0 0 1-16.314473 16.314473H175.037522a16.162001 16.162001 0 0 1-16.162001-16.314473V-29.503276z m606.837403 232.671829l-80.505062 108.559857a16.162001 16.162001 0 0 0 13.112567 25.92019h13.41751a16.314473 16.314473 0 0 1 16.314473 16.314473V600.509827a16.314473 16.314473 0 0 0 16.314473 16.314473h39.185229a16.162001 16.162001 0 0 0 16.162002-16.314473v-246.546754a16.314473 16.314473 0 0 1 16.314472-16.314473h17.076832a16.314473 16.314473 0 0 0 13.112567-25.92019l-80.505063-108.559857z m-69.374627 117.250744l52.602739-71.814175a16.466945 16.466945 0 0 1 26.377606 0l33.543776 45.741513a16.314473 16.314473 0 0 1-13.112567 25.92019 16.314473 16.314473 0 0 0-16.314473 16.162002V583.280524a16.162001 16.162001 0 0 1-16.314473 16.162001h-5.031566a16.162001 16.162001 0 0 1-16.314473-16.162001v-246.699226a16.314473 16.314473 0 0 0-16.314473-16.162001zM355.106611 209.877308h-59.616438a16.314473 16.314473 0 0 0-16.314473 16.314473V472.586063a16.314473 16.314473 0 0 1-16.314473 16.314473h-13.569982a16.314473 16.314473 0 0 0-12.960096 25.920191l67.392496 91.483025a16.314473 16.314473 0 0 0 26.225134 0l67.849911-91.483025a16.314473 16.314473 0 0 0-13.112567-26.072663h-16.92436a16.314473 16.314473 0 0 1-16.314473-16.314473V209.877308z m-58.549136 17.381775h21.346039a16.162001 16.162001 0 0 1 16.162001 16.314473V489.967838A16.314473 16.314473 0 0 0 350.684932 506.282311a16.314473 16.314473 0 0 1 13.112567 25.92019l-33.543777 45.741513a16.314473 16.314473 0 0 1-26.225134 0l-33.696247-45.741513a16.314473 16.314473 0 0 1 13.112567-25.92019 16.314473 16.314473 0 0 0 16.314473-16.314473v-262.861227z"  horiz-adv-x="1083" />

    
    <glyph glyph-name="type" unicode="&#58904;" d="M844.598818-123.044257l0.141593 0.141592-0.141593 0.141593v-0.283185zM816.846659 895.998018h-608.848379A83.114883 83.114883 0 0 1 124.317027 813.024727v-901.661971A38.371607 38.371607 0 0 1 124.317027-95.150506a35.114976 35.114976 0 0 1 0-3.823002v-1.274333a29.876048 29.876048 0 0 1 54.08839-12.035375l2.548668 1.699111 329.627681 279.928662 333.309089-282.052551 10.053078-8.353966a27.468973 27.468973 0 0 1 37.522051 0.991148 28.318529 28.318529 0 0 1 7.50441 16.56634h0.849556V813.024727A82.973291 82.973291 0 0 1 816.846659 895.998018z m-7.929188-764.60029v-93.167961l-275.256104 226.548234a26.336232 26.336232 0 0 1-3.964594 5.805298 25.345084 25.345084 0 0 1-34.973384 0L215.927469 41.344805V756.529261A48.849463 48.849463 0 0 0 265.909673 804.670761h494.158335a48.849463 48.849463 0 0 0 49.415834-48.1415z"  horiz-adv-x="1024" />

    
    <glyph glyph-name="time" unicode="&#58905;" d="M545.784079 411.846265v176.978487a33.910563 33.910563 0 1 1-67.821126 0v-176.978487a101.607928 101.607928 0 1 1 67.821126 0z m0 345.912497V827.683829h135.394731A34.034324 34.034324 0 0 1 715.089373 861.841914 33.910563 33.910563 0 0 1 681.17881 896H342.444461a33.910563 33.910563 0 0 1-33.786802-34.158086 34.034324 34.034324 0 0 1 33.786802-34.158085h136.137298v-69.553783a440.342277 440.342277 0 1 1 67.078559 0z m-33.910563-799.744742a357.79357 357.79357 0 1 0 354.947063 357.79357 356.308436 356.308436 0 0 0-354.947063-357.79357z"  horiz-adv-x="1024" />

    
    <glyph glyph-name="abnormal" unicode="&#58906;" d="M1065.078844 122.798775L688.738182 801.095463C655.535844 861.372669 602.953601 896 545.526381 896s-109.724464-34.627331-142.499304-95.047036L26.543915 122.941275c-33.059839-59.564709-35.339827-122.406902-6.269969-172.281659s85.499583-78.659616 153.044253-78.659616h744.986362c68.114667 0 123.831895 28.499861 152.901754 78.659616s26.932368 112.57445-6.127471 172.139159z m-79.514611-122.121903c-10.972446-18.809908-35.339827-29.497356-67.259672-29.497356H173.318199c-31.777345 0-56.287225 10.829947-67.259672 29.497356s-8.407459 45.884776 7.267465 74.099638l375.913164 678.011689c15.389925 28.499861 36.052324 44.032285 56.999722 44.032285s41.0398-16.102421 56.999721-44.032285l375.058169-678.011689c15.674923-28.214862 18.239911-55.28973 7.267465-74.099638zM545.81138 251.048149a49.589758 49.589758 0 0 1 49.589758 49.589758V532.341776a49.589758 49.589758 0 0 1-99.749513 0v-231.703869a49.589758 49.589758 0 0 1 49.589758-49.589758z m0-49.589758a66.119677 66.119677 0 1 1 66.119677-66.119677 66.119677 66.119677 0 0 1-66.119677 66.119677z"  horiz-adv-x="1091" />

    
    <glyph glyph-name="analyze" unicode="&#58907;" d="M767.963857-127.855428V639.963857h256.036143v-767.819285z m-383.837357 0V896h255.891571v-1023.855428zM0-127.855428V384.072286h255.891571v-511.927714z"  horiz-adv-x="1024" />

    
    <glyph glyph-name="daily-maintain" unicode="&#58908;" d="M512 27.85997c81.047184 25.362668 297.550851 118.736959 297.550851 333.823716v14.169088h-297.550851zM512 896C356.14003 784.205895 63.831742 784.205895 63.831742 784.205895v-428.189844c0-335.098935 322.771828-450.577003 448.168258-484.016051 125.39643 33.439048 448.168258 148.917116 448.168258 484.016051V784.205895S667.85997 784.205895 512 896z m364.145565-535.874914c0-263.68673-264.820257-372.221945-364.145565-403.110557-99.183617 30.888612-364.145565 139.565518-364.145565 403.110557V701.175038s220.18763 7.084544 364.145565 92.949218c143.957936-85.864674 364.145565-92.949218 364.145565-92.949218zM215.015913 639.822886v-264.253493h297.550851V723.137125c-118.028504-69.995295-297.550851-83.314238-297.550851-83.314239z"  horiz-adv-x="1024" />

    
    <glyph glyph-name="checked" unicode="&#58909;" d="M724.464502 574.344524L436.763897 286.221244l-136.664833 136.664832A43.67639 43.67639 0 1 1 237.824986 360.611998l167.520088-166.956522a43.112823 43.112823 0 0 1 26.7694-12.539351h8.312604a42.267474 42.267474 0 0 1 26.628508 12.539351L786.175014 512.634012a43.67639 43.67639 0 0 1-61.710512 61.710512zM869.019263 741.019263A504.955421 504.955421 0 1 1 154.980737 26.980737 504.955421 504.955421 0 1 1 869.019263 741.019263zM512-10.073748a394.496423 394.496423 0 1 0 394.496423 394.496423 394.496423 394.496423 0 0 0-394.496423-394.496423z"  horiz-adv-x="1024" />

    
    <glyph glyph-name="project-name" unicode="&#58910;" d="M143.564614 802.118659a14.177681 14.177681 0 0 1-16.729663-16.587886v-808.978459A16.587886 16.587886 0 0 1 143.564614-39.752019h737.239395a16.587886 16.587886 0 0 1 16.587887 16.587886V663.602719a16.587886 16.587886 0 0 1-16.587887 16.587887H548.053844a82.372325 82.372325 0 0 0-56.710723 26.937593l-82.514101 86.483852a23.676727 23.676727 0 0 1-17.154994 7.230617zM900.369209-127.937193H118.328342A79.678565 79.678565 0 0 0 35.530687-50.952387V813.17725A80.81278 80.81278 0 0 0 118.328342 895.974906h272.353246a72.306171 72.306171 0 0 0 59.120929-29.631353l88.752281-94.706907c5.954626-5.812849 5.954626-5.812849 11.909251-5.812849h354.442017A85.066084 85.066084 0 0 0 988.412606 683.309695v-734.262082A89.602942 89.602942 0 0 0 900.369209-127.937193zM200.417114 458.026349a47.0699 47.0699 0 0 1 48.204114-48.204114 48.204114 48.204114 0 0 1 0 96.408229 47.0699 47.0699 0 0 1-48.204114-48.204115m0-260.443994a47.0699 47.0699 0 0 1 48.204114-48.204114 48.204114 48.204114 0 1 1 0 96.408229 47.0699 47.0699 0 0 1-48.204114-48.204115M343.044581 500.559391m42.533042 0l382.797378 0q42.533042 0 42.533042-42.533042l0 0q0-42.533042-42.533042-42.533042l-382.797378 0q-42.533042 0-42.533042 42.533042l0 0q0 42.533042 42.533042 42.533042ZM343.044581 234.160772m42.533042 0l382.797378 0q42.533042 0 42.533042-42.533042l0 0q0-42.533042-42.533042-42.533042l-382.797378 0q-42.533042 0-42.533042 42.533042l0 0q0 42.533042 42.533042 42.533042Z"  horiz-adv-x="1024" />

    
    <glyph glyph-name="account" unicode="&#58911;" d="M511.917185 383.996282a255.998141 255.998141 0 1 0 255.998141 255.839922 255.839922 255.839922 0 0 0-255.998141-255.839922z m0 93.032699a162.965442 162.965442 0 1 1-162.807223 162.807223 162.807223 162.807223 0 0 1 162.807223-162.807223zM996.858039 147.142625a300.615864 300.615864 0 0 0 18.828047-77.210811c3.480815-23.732831 6.170536-47.465663 8.069162-71.514932v-9.967789a116.449093 116.449093 0 0 0-116.290873-116.449093h-791.094379A116.449093 116.449093 0 0 0 0.079122-11.550907v10.284226c2.056845 23.89105 4.746566 47.465663 8.069163 71.514932a299.033675 299.033675 0 0 0 18.986265 76.894374c35.757466 77.843687 298.875456 189.862651 484.307979 189.862651s449.183388-112.018964 485.41551-189.862651z m-89.551883-35.441028a256.947454 256.947454 0 0 1-27.371866 19.935578 676.385694 676.385694 0 0 1-97.462827 50.471821 720.212322 720.212322 0 0 1-270.079621 62.180019 715.465756 715.465756 0 0 1-270.712497-62.0218 676.069256 676.069256 0 0 1-97.462827-50.313602 256.947454 256.947454 0 0 1-27.371865-19.935579c-1.898627-1.740408-3.639034-3.480815-5.379442-5.379441A282.262474 282.262474 0 0 1 100.864546 57.274303c-2.215064-15.821888-4.27191-31.643775-5.854098-49.364289 0-8.702038-1.42397-15.821888-1.740408-20.252016a23.099956 23.099956 0 0 1 23.099956-21.992424h791.094379a23.099956 23.099956 0 0 1 23.099955 21.992424c0 4.588347-0.949313 11.549978-1.740407 20.252016-1.582189 15.821888-3.480815 32.909526-5.854099 49.206071a284.793976 284.793976 0 0 1-10.600664 49.997164 57.591671 57.591671 0 0 1-5.379442 5.379442z"  horiz-adv-x="1024" />

    
    <glyph glyph-name="device" unicode="&#58912;" d="M206.853509 744.99193v-641.846907A55.469797 55.469797 0 0 1 265.453656 44.544876h758.921986a55.469797 55.469797 0 0 1 58.474933 58.600147V744.99193a55.469797 55.469797 0 0 1-58.474933 58.600146H265.453656a55.845439 55.845439 0 0 1-58.600147-58.600146z m58.600147 0h758.921986V570.443629H265.453656z m758.295916-642.347763H265.453656v175.299585h758.921986v-175.299585zM265.453656 336.168256v175.299585h758.921986v-175.299585H265.453656z m77.632673 350.599169h58.600147a27.29665 27.29665 0 0 0 29.049645-29.049646 27.29665 27.29665 0 0 0-29.049645-28.924431H343.086329a27.29665 27.29665 0 0 0-29.049645 28.924431 27.29665 27.29665 0 0 0 29.049645 28.674004z m87.649792-262.949377A27.29665 27.29665 0 0 0 401.686476 395.144045H343.086329a29.049645 29.049645 0 0 0 0 58.099291h58.600147a27.29665 27.29665 0 0 0 29.049645-29.425288z m-116.699437-233.649303a27.29665 27.29665 0 0 0 29.049645 29.049646h58.600147a29.049645 29.049645 0 0 0 0-58.099291H343.086329a27.29665 27.29665 0 0 0-29.049645 29.049645z"  horiz-adv-x="1257" />

    
    <glyph glyph-name="repair" unicode="&#58913;" d="M911.7625925 328.73783719000005a30.10593844 30.10593844 0 0 0-4.74643125 19.93501312c0 12.34072219 1.76296031 23.46093375 1.76296031 34.58114626a224.70964125 224.70964125 0 0 1-1.76296031 34.44553312 29.97032625 29.97032625 0 0 0 4.74643125 19.52817656l58.31330531 81.36740156a28.6142025 28.6142025 0 0 1 0 30.10593938l-84.75771094 146.19009844a28.07175375 28.07175375 0 0 1-27.12246656 13.56123374l-100.62435375-9.35725125a27.80052937 27.80052937 0 0 0-17.22276656 5.6957175 377.95158094 377.95158094 0 0 1-56.82156938 33.36063469 28.34297812 28.34297812 0 0 0-12.88317187 12.34072314l-48.95605313 97.91210624A28.6142025 28.6142025 0 0 1 596.46391062 863.99972906H426.67726531A28.20736594 28.20736594 0 0 1 401.31775905 848.40430969l-47.7355425-94.92863531a27.1224675 27.1224675 0 0 0-12.88317186-12.3407222 404.66721187 404.66721187 0 0 1-56.82156938-33.36063468 27.1224675 27.1224675 0 0 0-18.57888937-5.15326876l-100.62435375 9.35725126a28.6142025 28.6142025 0 0 1-27.1224675-13.56123375L53.06527907 550.4640075a28.07175375 28.07175375 0 0 1-2e-8-30.10593938l58.3133044-82.31668781A29.97032625 29.97032625 0 0 0 116.53185219 418.51320375c0-12.20511001-1.76296031-23.32532156-1.76296032-34.44553313A226.47260156 226.47260156 0 0 1 116.53185219 349.48652438a29.97032625 29.97032625 0 0 0-4.74643125-19.52817563L55.50630125 247.64166a27.80052937 27.80052937 0 0 1 0-29.97032625l83.40158719-146.86816031a28.47859031 28.47859031 0 0 1 27.12246656-13.56123375l100.62435375 9.35725125a27.1224675 27.1224675 0 0 0 18.57889032-5.15326875 403.03986375 403.03986375 0 0 1 67.80616781-37.83584156 27.1224675 27.1224675 0 0 0 14.64613218-14.91735657l34.58114625-86.24944593A28.47859031 28.47859031 0 0 1 428.44022657-96h170.05786968a28.47859031 28.47859031 0 0 1 26.1731803 17.76521625L658.9811975 8.014662189999967A28.34297812 28.34297812 0 0 0 673.898555 23.203244059999975a405.48088594 405.48088594 0 0 1 66.450045 37.56461626 27.1224675 27.1224675 0 0 0 18.57888937 5.15326967l100.62435376-9.35725124a28.47859031 28.47859031 0 0 1 27.12246749 13.56123281L970.88957094 217.67133375000003a27.80052937 27.80052937 0 0 1 0 29.97032625z m-65.09392125-215.62361438l-115.13487375 10.44214969-8.95041375-6.91622907A339.03084094 339.03084094 0 0 0 631.85873094 65.37868031000005l-11.66266125-4.61082001-40.68370125-102.11608874h-132.35764031l-40.68370032 102.11608874-11.79827344 4.61082001a339.03084094 339.03084094 0 0 0-90.04659092 51.26146312l-9.08602688 6.91622907-116.49099657-10.44214969-67.80616875 115.27048594 66.99249469 94.92863531v11.12021156a306.89071689 306.89071689 0 0 0 0 97.09843219v11.1202125l-66.99249469 94.92863531 66.72126937 116.62660875 115.40609813-10.57776187 8.95041469 6.91622906a339.03084094 339.03084094 0 0 0 79.33321687 46.92186844l9.62847563 3.797145 53.43126093 106.04884687h134.25621282l52.88881125-107.2693575 9.62847562-3.93275812a334.28440876 334.28440876 0 0 0 79.33321689-46.92186844l8.95041374-6.91622906 115.40609812 11.52704906 67.26371906-115.27048594-66.99249375-94.92863531v-11.12021156a305.94143063 305.94143063 0 0 0 0-96.96282094v-11.12021156l66.99249375-94.92863531zM512.92671125 563.61840377a180.228795 180.228795 0 1 1 180.228795-180.22879502 180.228795 180.228795 0 0 1-180.228795 180.22879502z m0-300.38132534a120.15253031 120.15253031 0 1 0 120.15253031 120.15253032 120.15253031 120.15253031 0 0 0-120.15253031-120.15253032z"  horiz-adv-x="1024" />

    
    <glyph glyph-name="date" unicode="&#58915;" d="M832.9988 796.581032h68.533013a114.631453 114.631453 0 0 0 114.785114-114.785114v-687.174069a114.631453 114.631453 0 0 0-114.477791-114.938776H122.929172a114.785114 114.785114 0 0 0-115.246099 114.631453V681.795918A114.631453 114.631453 0 0 0 122.929172 796.581032h68.533013v46.09844a46.098439 46.098439 0 0 0 92.196879 0v-46.09844h92.196878v46.09844a46.098439 46.098439 0 0 0 92.196879 0v-46.09844h92.196879v46.09844a46.098439 46.098439 0 0 0 92.196879 0v-46.09844h92.196878v46.09844a46.098439 46.098439 0 0 0 92.196879 0v-46.09844z m0-92.196878v-46.09844a46.098439 46.098439 0 1 0-92.196879 0v46.09844h-92.196879v-46.09844a46.098439 46.098439 0 0 0-92.196879 0v46.09844h-92.196878v-46.09844a46.098439 46.098439 0 0 0-92.196879 0v46.09844h-92.196879v-46.09844a46.098439 46.098439 0 0 0-92.196879 0v46.09844H122.929172a22.741897 22.741897 0 0 1-23.04922-22.895559v-686.866746a23.04922 23.04922 0 0 1 23.04922-23.04922h779.063625a23.04922 23.04922 0 0 1 23.04922 23.04922V681.795918a23.04922 23.04922 0 0 1-23.04922 23.04922zM236.945978 406.895558a46.098439 46.098439 0 1 0 0 92.196879h481.267707a46.098439 46.098439 0 1 0 0-92.196879z m0-160.422569a46.098439 46.098439 0 1 0 0 92.196879h550.108044a46.098439 46.098439 0 0 0 0-92.196879z m0-160.422569a46.098439 46.098439 0 1 0 0 92.196879H557.791116a46.098439 46.098439 0 1 0 0-92.196879H236.945978z"  horiz-adv-x="1024" />

    
    <glyph glyph-name="delete" unicode="&#58916;" d="M854.624227 622.961266A41.898527 41.898527 0 0 1 812.027391 580.224768v-573.451173a49.440262 49.440262 0 0 0-49.440262-49.440262h-498.592471a49.440262 49.440262 0 0 0-49.440262 49.440262V580.224768a42.736498 42.736498 0 1 1-85.333333 0v-573.451173a135.052919 135.052919 0 0 1 134.773595-134.773595h499.29078a134.913257 134.913257 0 0 1 134.773595 134.773595V580.224768a44.133115 44.133115 0 0 1-43.434806 42.736498zM939.95756 725.333333H683.95756V819.186034a77.09329 77.09329 0 0 1-76.813966 76.813966H419.438193a77.09329 77.09329 0 0 1-76.813966-76.813966v-93.852701H86.624227a42.736498 42.736498 0 1 1 0-85.333333h853.333333a42.736498 42.736498 0 0 1 0 85.333333zM427.95756 810.666667h170.666667v-85.333334H427.95756zM427.95756 127.860338V443.775232a42.736498 42.736498 0 0 1-85.333333 0V127.860338a42.736498 42.736498 0 1 1 85.333333 0zM683.95756 127.860338V443.775232a42.736498 42.736498 0 0 1-85.333333 0V127.860338a42.736498 42.736498 0 1 1 85.333333 0z"  horiz-adv-x="1024" />

    
    <glyph glyph-name="device-tec" unicode="&#58917;" d="M0 896v-256h1024V896z m191.964025-191.964025H64.035975V831.964025h127.92805zM0 256.071951h1024V512.071951H0z m64.035975 191.964024h127.92805V320.395728H64.035975zM0-128h1024V128H0z m64.035975 192.107926h127.92805v-128.071951H64.035975z"  horiz-adv-x="1024" />

    
    <glyph glyph-name="mission-content" unicode="&#58918;" d="M827.518685 895.995733H196.765758A156.443793 156.443793 0 0 1 40.321965 740.974157v-713.952581A156.443793 156.443793 0 0 1 196.765758-128h629.757376a156.443793 156.443793 0 0 1 156.443793 155.021576V740.974157A154.310468 154.310468 0 0 1 827.518685 895.995733zM893.651743 44.230393a81.066329 81.066329 0 0 0-80.924107-79.928555h-600.175277a80.497442 80.497442 0 0 0-80.924107 79.928555V725.329778a81.208551 81.208551 0 0 0 80.924107 79.928556h600.744163A80.355221 80.355221 0 0 0 893.651743 725.329778zM219.947884 661.045601m49.77757 0l244.621203 0q49.77757 0 49.77757-49.77757l0 0q0-49.77757-49.77757-49.777571l-244.621203 0q-49.77757 0-49.77757 49.777571l0 0q0 49.77757 49.77757 49.77757ZM220.090105 433.775437m49.777571 0l486.255751 0q49.77757 0 49.777571-49.77757l0 0q0-49.77757-49.777571-49.777571l-486.255751 0q-49.77757 0-49.777571 49.777571l0 0q0 49.77757 49.777571 49.77757ZM219.094554 201.100851m49.77757 0l486.255752 0q49.77757 0 49.77757-49.77757l0 0q0-49.77757-49.77757-49.777571l-486.255752 0q-49.77757 0-49.77757 49.777571l0 0q0 49.77757 49.77757 49.77757Z"  horiz-adv-x="1024" />

    
    <glyph glyph-name="tel" unicode="&#58919;" d="M920.430055 99.496336l-132.535876 110.053515a35.374344 35.374344 0 0 1-35.846002 1.886631l-73.578635-49.052423a47.165792 47.165792 0 0 0-26.098405-7.860965 306.577647 306.577647 0 0 0-65.56045 9.275939 395.720994 395.720994 0 0 0-294.628981 294.943418 311.137007 311.137007 0 0 0-9.433158 65.87489 47.165792 47.165792 0 0 0 7.860965 25.626747l49.052424 73.578635a34.902686 34.902686 0 0 1-1.886632 36.31766l-110.053514 132.850314a21.696264 21.696264 0 0 1-30.028888 7.232088 19.966852 19.966852 0 0 1-7.232088-7.232088l-73.264197-89.615005a130.492024 130.492024 0 0 1-20.28129-104.2364 33.644932 33.644932 0 0 0 1.414974-5.345457 228.282433 228.282433 0 0 1 7.232088-25.626746A605.451549 605.451549 0 0 1 138.578444 487.199146a1067.047432 1067.047432 0 0 1 204.385098-273.247155 1062.802511 1062.802511 0 0 1 272.461058-202.970124 605.451549 605.451549 0 0 1 80.024627-33.487712 248.878162 248.878162 0 0 1 25.626747-7.232089l6.445992-1.729412a127.504857 127.504857 0 0 1 103.135865 20.595729l89.615004 73.578636a22.010703 22.010703 0 0 1 7.389308 29.557229 21.696264 21.696264 0 0 1-7.232088 7.232088z m-220.107029 189.920922a127.976515 127.976515 0 0 0 147.31449-7.860965l132.693094-110.053514a114.298436 114.298436 0 0 0 19.652414-161.149789 118.857796 118.857796 0 0 0-20.43851-20.281291l-89.615005-73.106977a220.107029 220.107029 0 0 0-188.663167-37.732634 326.858938 326.858938 0 0 0-34.273809 9.747597 679.659061 679.659061 0 0 0-92.602172 38.361511 1158.549068 1158.549068 0 0 0-297.616147 220.107029 1154.933024 1154.933024 0 0 0-220.107028 297.616147 690.821632 690.821632 0 0 0-38.518731 92.75939C12.960218 550.086868 9.658613 561.563878 6.985885 573.355326a222.465318 222.465318 0 0 0 37.418195 188.663167l73.421416 89.300566a114.612874 114.612874 0 0 0 160.678131 20.910168A113.512339 113.512339 0 0 0 298.784917 851.947936l110.053515-132.378655a127.504857 127.504857 0 0 0 7.860965-147.314491L377.39457 511.882577a273.561593 273.561593 0 0 1 5.659895-31.443861 306.263209 306.263209 0 0 1 47.165792-105.022497 297.616147 297.616147 0 0 1 72.949759-73.893074 305.634332 305.634332 0 0 1 105.179715-47.165792 244.004363 244.004363 0 0 1 31.443862-5.502676l60.372213 40.090923z"  horiz-adv-x="1024" />

    
    <glyph glyph-name="sound" unicode="&#58901;" d="M507.733333-106.666667a155.306667 155.306667 0 0 0-149.048889 112.355556H115.2a94.435556 94.435556 0 0 0-90.88 71.111111 100.977778 100.977778 0 0 0 29.297778 104.106667L56.888889 183.466667a179.911111 179.911111 0 0 1 72.533333 145.066666V496.355556a378.311111 378.311111 0 1 0 756.622222 0v-167.822223a179.911111 179.911111 0 0 1 72.533334-145.066666 96 96 0 0 0 32.284444-108.088889 93.724444 93.724444 0 0 0-90.595555-69.688889H656.782222a155.306667 155.306667 0 0 0-149.048889-112.355556zM110.222222 116.764444a14.222222 14.222222 0 0 1-4.124444-15.786666 21.902222 21.902222 0 0 0 0-2.417778 9.244444 9.244444 0 0 1 8.391111-7.537778H395.377778a42.666667 42.666667 0 0 0 42.666666-42.666666 68.835556 68.835556 0 0 1 69.688889-69.688889 69.831111 69.831111 0 0 1 69.688889 69.688889 42.666667 42.666667 0 0 0 42.666667 42.666666h280.177778a8.675556 8.675556 0 0 1 8.248889 6.968889 41.528889 41.528889 0 0 0 1.848888 5.973333 10.382222 10.382222 0 0 1-3.413333 11.52 263.964444 263.964444 0 0 0-106.24 213.333334V496.355556a292.977778 292.977778 0 1 1-585.955555 0v-167.822223a264.817778 264.817778 0 0 0-104.533334-211.768889z"  horiz-adv-x="1024" />

    
    <glyph glyph-name="inspeact-repair" unicode="&#58902;" d="M882.813629-127.855808a148.517974 148.517974 0 0 0-100.934546 39.941242L412.026069 281.650064A317.222858 317.222858 0 0 0 0.06893 581.13728a271.225544 271.225544 0 0 0 41.671548 150.680858 36.048052 36.048052 0 0 0 56.090769 6.344457l172.021305-172.021305 59.983958 59.983959L157.815206 798.146553a36.048052 36.048052 0 0 0 6.344457 56.090769A270.937159 270.937159 0 0 0 315.705674 895.908871a318.376396 318.376396 0 0 0 313.185476-314.05063 272.379081 272.379081 0 0 0-14.419221-98.194894l377.351009-377.062624 1.29773-1.441922a137.270982 137.270982 0 0 0-11.391184-193.650136A142.029325 142.029325 0 0 0 882.813629-127.855808z m-461.415067 487.369664a36.048052 36.048052 0 0 0 25.522021-10.526031l384.993196-384.993196a73.538026 73.538026 0 0 1 100.934546 0 64.742301 64.742301 0 0 1 7.497995 92.138821l-7.930572 7.786379L547.134168 448.913025a36.048052 36.048052 0 0 0-7.497995 39.941242 208.357741 208.357741 0 0 1 17.158873 90.985283A246.280292 246.280292 0 0 1 314.119559 823.812766a199.562016 199.562016 0 0 1-68.923875-10.526031l161.206889-161.639465a36.336436 36.336436 0 0 0 0-51.044042l-111.028001-111.028a37.345782 37.345782 0 0 0-51.044041 0L82.691065 650.782117A196.101403 196.101403 0 0 1 72.165034 582.579202a246.424484 246.424484 0 0 1 242.675487-243.396447 240.656796 240.656796 0 0 1 92.571397 17.447257 35.327091 35.327091 0 0 0 13.842452 2.739652z"  horiz-adv-x="1027" />

    
    <glyph glyph-name="estate" unicode="&#58914;" d="M1068.073758-128H42.666062a42.666062 42.666062 0 0 0 0 85.332124h1025.407696a42.666062 42.666062 0 0 0 0-85.332124zM716.789845-126.577798H103.820751V823.453188A71.110104 71.110104 0 0 0 176.353057 895.985494h467.904483a71.110104 71.110104 0 0 0 72.532305-72.532306z m-527.636969 85.332125h442.304845V810.653369H189.152876zM998.385856-120.88899H631.457721V597.323058L967.097411 353.130962a64.852415 64.852415 0 0 0 31.004005-61.29691z m-281.596011 85.332125h196.263887V287.140786l-196.263887 142.220207zM546.125597 551.812592H284.440415a42.666062 42.666062 0 0 0 0 85.332124h261.685182a42.666062 42.666062 0 0 0 0-85.332124zM546.125597 356.970907H284.440415a42.666062 42.666062 0 0 0 0 85.332125h261.685182a42.666062 42.666062 0 0 0 0-85.332125zM546.125597 155.018213H284.440415a42.666062 42.666062 0 1 0 0 85.332124h261.685182a42.666062 42.666062 0 0 0 0-85.332124zM782.211141 191.995467h63.999093V127.996373H782.211141zM846.210234 120.885363H782.211141a7.11101 7.11101 0 0 0-7.11101 7.11101v63.999094a7.11101 7.11101 0 0 0 7.11101 7.11101h63.999093a7.11101 7.11101 0 0 0 7.111011-7.11101V127.996373a7.11101 7.11101 0 0 0-7.111011-7.11101z m-56.888083 14.222021H839.099224V184.884456h-49.777073z"  horiz-adv-x="1110" />

    
    <glyph glyph-name="Trining-alarm" unicode="&#58920;" d="M912.418431-128H111.581569a38.256538 38.256538 0 0 0-38.256538 38.256538V857.743462a38.256538 38.256538 0 0 0 38.256538 38.256538h800.836862a38.256538 38.256538 0 0 0 38.256538-38.256538v-947.486924a38.256538 38.256538 0 0 0-38.256538-38.256538zM149.838107-51.486924h724.323786V819.486924H149.838107zM512 570.819427a117.32005 117.32005 0 1 0 117.32005 117.32005 117.447572 117.447572 0 0 0-117.32005-117.32005z m0 183.631382a66.311333 66.311333 0 1 1 66.311333-66.311332 66.311333 66.311333 0 0 1-66.311333 66.311332zM578.311333-111.422167H445.688667a25.504359 25.504359 0 0 0-25.504358 25.504359V137.24533a100.359651 100.359651 0 0 0-72.687422 96.916563V427.995019a100.742217 100.742217 0 0 0 100.742216 100.742216h128.797012a100.23213 100.23213 0 0 0 99.466998-100.742216v-193.833126a100.104608 100.104608 0 0 0-72.687422-96.916563V-85.917808a25.504359 25.504359 0 0 0-25.504358-25.504359z m-107.118307 51.008717h81.613948V158.924035a25.504359 25.504359 0 0 0 24.739228 25.504359 49.350934 49.350934 0 0 1 47.948194 49.733499V427.995019a48.585803 48.585803 0 0 1-48.458281 49.733499H448.239103a49.861021 49.861021 0 0 1-49.733499-49.733499v-193.833126a49.350934 49.350934 0 0 1 47.948194-49.733499 25.504359 25.504359 0 0 0 24.739228-25.504359zM260.782067 871.770859h76.513076V-85.917808h-76.513076zM682.879203 865.39477h76.513076v-957.688668h-76.513076z"  horiz-adv-x="1024" />

    


  </font>
</defs>
</svg>
